<svg id="visual" viewBox="0 0 900 600" width="900" height="600" xmlns="http://www.w3.org/2000/svg" xmlns:xlink="http://www.w3.org/1999/xlink" version="1.1"><g stroke-width="1" stroke-linejoin="bevel"><path d="M458 298L459 399L571.5 391Z" fill="#0c2435" stroke="#0c2435"></path><path d="M571.5 391L571.5 304L458 298Z" fill="#205a7a" stroke="#205a7a"></path><path d="M345.5 404L450 492L459 399Z" fill="#246688" stroke="#246688"></path><path d="M459 399L568.5 509L571.5 391Z" fill="#112e42" stroke="#112e42"></path><path d="M670 192L572.5 197L571.5 304Z" fill="#277297" stroke="#277297"></path><path d="M571.5 304L572.5 197L458 298Z" fill="#246688" stroke="#246688"></path><path d="M450 492L568.5 509L459 399Z" fill="#00101c" stroke="#00101c"></path><path d="M674 409L679 308L571.5 391Z" fill="#0c2435" stroke="#0c2435"></path><path d="M571.5 391L679 308L571.5 304Z" fill="#19435d" stroke="#19435d"></path><path d="M572.5 197L443 190L458 298Z" fill="#1d4e6b" stroke="#1d4e6b"></path><path d="M458 298L345.5 404L459 399Z" fill="#15384f" stroke="#15384f"></path><path d="M568.5 509L674 409L571.5 391Z" fill="#297ea6" stroke="#297ea6"></path><path d="M339.5 290L345.5 404L458 298Z" fill="#00101c" stroke="#00101c"></path><path d="M443 190L339.5 290L458 298Z" fill="#297ea6" stroke="#297ea6"></path><path d="M234 398L348.5 498L345.5 404Z" fill="#15384f" stroke="#15384f"></path><path d="M345.5 404L348.5 498L450 492Z" fill="#19435d" stroke="#19435d"></path><path d="M450 492L554.5 600L568.5 509Z" fill="#15384f" stroke="#15384f"></path><path d="M679 308L670 192L571.5 304Z" fill="#205a7a" stroke="#205a7a"></path><path d="M572.5 197L568.5 97L443 190Z" fill="#0c2435" stroke="#0c2435"></path><path d="M568.5 509L682 503L674 409Z" fill="#081a28" stroke="#081a28"></path><path d="M674 409L779.5 397L679 308Z" fill="#19435d" stroke="#19435d"></path><path d="M443 190L327.5 192L339.5 290Z" fill="#112e42" stroke="#112e42"></path><path d="M339.5 290L234 398L345.5 404Z" fill="#112e42" stroke="#112e42"></path><path d="M443 600L554.5 600L450 492Z" fill="#277297" stroke="#277297"></path><path d="M568.5 509L686 600L682 503Z" fill="#19435d" stroke="#19435d"></path><path d="M670 192L568.5 97L572.5 197Z" fill="#246688" stroke="#246688"></path><path d="M443 190L336.5 106L327.5 192Z" fill="#1d4e6b" stroke="#1d4e6b"></path><path d="M348.5 498L443 600L450 492Z" fill="#277297" stroke="#277297"></path><path d="M568.5 97L439 92L443 190Z" fill="#205a7a" stroke="#205a7a"></path><path d="M682 503L779.5 397L674 409Z" fill="#0c2435" stroke="#0c2435"></path><path d="M679 308L786.5 197L670 192Z" fill="#0c2435" stroke="#0c2435"></path><path d="M779.5 397L782.5 302L679 308Z" fill="#1d4e6b" stroke="#1d4e6b"></path><path d="M327.5 192L236 297L339.5 290Z" fill="#246688" stroke="#246688"></path><path d="M236 297L234 398L339.5 290Z" fill="#1d4e6b" stroke="#1d4e6b"></path><path d="M348.5 498L333.5 600L443 600Z" fill="#0c2435" stroke="#0c2435"></path><path d="M670 192L675 100L568.5 97Z" fill="#0c2435" stroke="#0c2435"></path><path d="M568.5 97L457 0L439 92Z" fill="#19435d" stroke="#19435d"></path><path d="M777.5 96L675 100L670 192Z" fill="#1d4e6b" stroke="#1d4e6b"></path><path d="M439 92L336.5 106L443 190Z" fill="#15384f" stroke="#15384f"></path><path d="M327.5 192L214 202L236 297Z" fill="#205a7a" stroke="#205a7a"></path><path d="M554.5 600L686 600L568.5 509Z" fill="#246688" stroke="#246688"></path><path d="M682 503L785.5 509L779.5 397Z" fill="#00101c" stroke="#00101c"></path><path d="M224 497L333.5 600L348.5 498Z" fill="#19435d" stroke="#19435d"></path><path d="M900 211L786.5 197L782.5 302Z" fill="#277297" stroke="#277297"></path><path d="M782.5 302L786.5 197L679 308Z" fill="#00101c" stroke="#00101c"></path><path d="M686 600L785.5 509L682 503Z" fill="#205a7a" stroke="#205a7a"></path><path d="M779.5 397L900 297L782.5 302Z" fill="#00101c" stroke="#00101c"></path><path d="M118.5 391L224 497L234 398Z" fill="#277297" stroke="#277297"></path><path d="M234 398L224 497L348.5 498Z" fill="#081a28" stroke="#081a28"></path><path d="M236 94L214 202L327.5 192Z" fill="#112e42" stroke="#112e42"></path><path d="M236 297L123.5 296L234 398Z" fill="#246688" stroke="#246688"></path><path d="M675 0L555.5 0L568.5 97Z" fill="#112e42" stroke="#112e42"></path><path d="M439 92L336.5 0L336.5 106Z" fill="#081a28" stroke="#081a28"></path><path d="M555.5 0L457 0L568.5 97Z" fill="#246688" stroke="#246688"></path><path d="M336.5 106L236 94L327.5 192Z" fill="#00101c" stroke="#00101c"></path><path d="M786.5 197L777.5 96L670 192Z" fill="#205a7a" stroke="#205a7a"></path><path d="M675 100L675 0L568.5 97Z" fill="#277297" stroke="#277297"></path><path d="M686 600L780.5 600L785.5 509Z" fill="#19435d" stroke="#19435d"></path><path d="M336.5 0L236 94L336.5 106Z" fill="#19435d" stroke="#19435d"></path><path d="M777.5 96L675 0L675 100Z" fill="#205a7a" stroke="#205a7a"></path><path d="M112.5 502L217 600L224 497Z" fill="#205a7a" stroke="#205a7a"></path><path d="M224 497L217 600L333.5 600Z" fill="#112e42" stroke="#112e42"></path><path d="M457 0L336.5 0L439 92Z" fill="#00101c" stroke="#00101c"></path><path d="M786.5 197L900 103L777.5 96Z" fill="#19435d" stroke="#19435d"></path><path d="M900 408L900 297L779.5 397Z" fill="#19435d" stroke="#19435d"></path><path d="M900 408L779.5 397L785.5 509Z" fill="#277297" stroke="#277297"></path><path d="M112.5 204L123.5 296L214 202Z" fill="#246688" stroke="#246688"></path><path d="M214 202L123.5 296L236 297Z" fill="#246688" stroke="#246688"></path><path d="M900 506L900 408L785.5 509Z" fill="#0c2435" stroke="#0c2435"></path><path d="M123.5 296L118.5 391L234 398Z" fill="#081a28" stroke="#081a28"></path><path d="M900 297L900 211L782.5 302Z" fill="#1d4e6b" stroke="#1d4e6b"></path><path d="M900 600L900 506L785.5 509Z" fill="#0c2435" stroke="#0c2435"></path><path d="M120.5 101L112.5 204L214 202Z" fill="#277297" stroke="#277297"></path><path d="M123.5 296L0 389L118.5 391Z" fill="#15384f" stroke="#15384f"></path><path d="M120.5 101L214 202L236 94Z" fill="#297ea6" stroke="#297ea6"></path><path d="M0 488L112.5 502L118.5 391Z" fill="#297ea6" stroke="#297ea6"></path><path d="M118.5 391L112.5 502L224 497Z" fill="#00101c" stroke="#00101c"></path><path d="M336.5 0L228 0L236 94Z" fill="#19435d" stroke="#19435d"></path><path d="M777.5 96L796.5 0L675 0Z" fill="#112e42" stroke="#112e42"></path><path d="M900 103L796.5 0L777.5 96Z" fill="#19435d" stroke="#19435d"></path><path d="M900 211L900 103L786.5 197Z" fill="#297ea6" stroke="#297ea6"></path><path d="M780.5 600L900 600L785.5 509Z" fill="#205a7a" stroke="#205a7a"></path><path d="M228 0L120.5 101L236 94Z" fill="#081a28" stroke="#081a28"></path><path d="M0 600L107.5 600L112.5 502Z" fill="#205a7a" stroke="#205a7a"></path><path d="M112.5 502L107.5 600L217 600Z" fill="#00101c" stroke="#00101c"></path><path d="M0 288L0 389L123.5 296Z" fill="#00101c" stroke="#00101c"></path><path d="M0 288L123.5 296L112.5 204Z" fill="#246688" stroke="#246688"></path><path d="M0 204L0 288L112.5 204Z" fill="#0c2435" stroke="#0c2435"></path><path d="M900 103L900 0L796.5 0Z" fill="#00101c" stroke="#00101c"></path><path d="M0 389L0 488L118.5 391Z" fill="#00101c" stroke="#00101c"></path><path d="M0 100L112.5 204L120.5 101Z" fill="#246688" stroke="#246688"></path><path d="M0 100L0 204L112.5 204Z" fill="#1d4e6b" stroke="#1d4e6b"></path><path d="M228 0L100.5 0L120.5 101Z" fill="#205a7a" stroke="#205a7a"></path><path d="M100.5 0L0 100L120.5 101Z" fill="#246688" stroke="#246688"></path><path d="M0 488L0 600L112.5 502Z" fill="#15384f" stroke="#15384f"></path><path d="M100.5 0L0 0L0 100Z" fill="#081a28" stroke="#081a28"></path></g></svg>